# xmcd
#
# Track frame offsets: 
#        150
#        23497
#        46550
#        70632
#        94975
#        113491
#        136546
#        157608
#        177762
#        206496
#
# Disc length: 3039 seconds
#
# Revision: 1
# Processed by: cddbd v1.5.2PL0 Copyright (c) Steve Scherf et al.
# Submitted via: ExactAudioCopy v0.99pb5
#
DISCID=640bdd0a
DTITLE=Orq. Broadway - 40th Anniversary
DYEAR=2003
DGENRE=Salsa
TTITLE0=Mulata
TTITLE1=Isla Del Encanto
TTITLE2=La Humanidad
TTITLE3=Arrepientete
TTITLE4=Aun Yo me Acuerdo de Ti
TTITLE5=Yo Bailo Con Ella
TTITLE6=Montuneando Me Voy
TTITLE7=Ya Se Te Va
TTITLE8=No Se Va Poder
TTITLE9=La Negra Fulo
EXTD=YEAR: 2003
EXTT0=
EXTT1=
EXTT2=
EXTT3=
EXTT4=
EXTT5=
EXTT6=
EXTT7=
EXTT8=
EXTT9=
PLAYORDER=
